<?xml version="1.0" standalone="no"?>
<!DOCTYPE svg PUBLIC "-//W3C//DTD SVG 20010904//EN"
 "http://www.w3.org/TR/2001/REC-SVG-20010904/DTD/svg10.dtd">
<svg version="1.0" xmlns="http://www.w3.org/2000/svg"
 width="512.000000pt" height="512.000000pt" viewBox="0 0 512.000000 512.000000"
 preserveAspectRatio="xMidYMid meet">

<g transform="translate(0.000000,512.000000) scale(0.100000,-0.100000)"
fill="#e5e7eb" stroke="none">
<path d="M1858 3360 c-20 -11 -46 -35 -58 -54 -21 -35 -21 -39 -23 -667 -2
-615 -1 -632 18 -667 28 -50 66 -74 123 -80 69 -6 125 26 157 89 l23 45 0 614
c0 582 -1 616 -19 651 -40 79 -143 111 -221 69z"/>
<path d="M3130 3369 c-14 -6 -36 -20 -48 -32 -53 -49 -52 -29 -52 -705 l0
-630 23 -32 c35 -52 70 -73 129 -77 64 -5 99 14 142 76 l30 42 -2 631 c-2 703
2 666 -72 715 -36 25 -104 30 -150 12z"/>
<path d="M1502 3202 c-36 -11 -88 -58 -105 -95 -15 -31 -17 -86 -17 -469 0
-430 0 -434 23 -478 50 -100 154 -120 236 -46 13 11 27 32 33 46 6 15 9 214 9
490 0 436 -1 466 -19 489 -39 53 -106 79 -160 63z"/>
<path d="M3554 3200 c-17 -4 -43 -15 -57 -26 -53 -39 -54 -52 -56 -533 -2
-428 -1 -445 19 -485 26 -52 61 -77 116 -84 56 -6 103 23 140 85 l27 47 -2
445 -2 446 -27 40 c-39 56 -96 80 -158 65z"/>
<path d="M1179 2822 c-113 -72 -121 -247 -16 -339 38 -33 101 -53 118 -36 5 5
8 91 7 204 l-3 194 -30 3 c-20 2 -46 -7 -76 -26z"/>
<path d="M3831 2694 c0 -88 4 -179 7 -204 7 -41 10 -45 35 -43 35 2 103 51
117 83 6 14 20 41 31 60 53 93 -33 245 -146 258 l-45 5 1 -159z"/>
<path d="M2287 2811 c-46 -10 -93 -52 -108 -99 -18 -54 -3 -156 29 -194 46
-55 65 -58 357 -58 295 0 297 0 355 66 32 37 32 39 28 118 -5 91 -21 126 -72
154 -27 14 -68 17 -291 19 -143 1 -277 -2 -298 -6z"/>
</g>
</svg>
